<svg xmlns="http://www.w3.org/2000/svg" xmlns:xlink="http://www.w3.org/1999/xlink" width="128" height="128" preserveAspectRatio="xMidYMid meet" viewBox="0 0 128 128" style="-ms-transform: rotate(360deg); -webkit-transform: rotate(360deg); transform: rotate(360deg);"><linearGradient id="IconifyId-176052c72f9-2589ff-2098" gradientUnits="userSpaceOnUse" x1="29.2" y1="830.09" x2="40.8" y2="830.09" gradientTransform="translate(0 -713.89)"><stop offset="0" stop-color="#40c0e7"/><stop offset="1" stop-color="#40c0e7"/></linearGradient><path fill="url(#IconifyId-176052c72f9-2589ff-2098)" d="M29.2 110.4h11.6V122H29.2z"/><linearGradient id="IconifyId-176052c72f9-2589ff-2099" gradientUnits="userSpaceOnUse" x1="29.2" y1="725.69" x2="40.8" y2="725.69" gradientTransform="translate(0 -713.89)"><stop offset="0" stop-color="#f0f"/><stop offset="1" stop-color="#f0f"/></linearGradient><path fill="url(#IconifyId-176052c72f9-2589ff-2099)" d="M29.2 6h11.6v11.6H29.2z"/><linearGradient id="IconifyId-176052c72f9-2589ff-2100" gradientUnits="userSpaceOnUse" x1="87.2" y1="830.09" x2="98.8" y2="830.09" gradientTransform="translate(0 -713.89)"><stop offset="0" stop-color="#40c0e7"/><stop offset="1" stop-color="#40c0e7"/></linearGradient><path fill="url(#IconifyId-176052c72f9-2589ff-2100)" d="M87.2 110.4h11.6V122H87.2z"/><linearGradient id="IconifyId-176052c72f9-2589ff-2101" gradientUnits="userSpaceOnUse" x1="64" y1="824.29" x2="64" y2="731.49" gradientTransform="translate(0 -713.89)"><stop offset=".072" stop-color="#792d85"/><stop offset=".305" stop-color="#ac1cb3"/><stop offset=".542" stop-color="#d90ddc"/><stop offset=".725" stop-color="#f503f6"/><stop offset=".831" stop-color="#f0f"/></linearGradient><path d="M110.4 52.4V40.8H98.8V29.2H87.2V17.6H75.6v11.6H52.4V17.6H40.8v11.6H29.2v11.6H17.6v11.6H6v46.4h11.6V64h11.6v34.8h11.6v11.6h11.6V91.1H40.8V79.5h46.4v11.6H75.6v19.3h11.6V98.8h11.6V64h11.6v34.8H122V52.4h-11.6zM40.8 40.8h11.6v11.6H40.8V40.8zm46.4 11.6H75.6V40.8h11.6v11.6z" fill="url(#IconifyId-176052c72f9-2589ff-2101)"/><linearGradient id="IconifyId-176052c72f9-2589ff-2102" gradientUnits="userSpaceOnUse" x1="87.2" y1="725.69" x2="98.8" y2="725.69" gradientTransform="translate(0 -713.89)"><stop offset="0" stop-color="#f0f"/><stop offset="1" stop-color="#f0f"/></linearGradient><path fill="url(#IconifyId-176052c72f9-2589ff-2102)" d="M87.2 6h11.6v11.6H87.2z"/><g stroke="#6f21a1" stroke-width="4" stroke-miterlimit="10"><path fill="#792d85" d="M29.2 110.4h11.6V122H29.2z"/><path fill="none" d="M29.2 6h11.6v11.6H29.2z"/><path fill="#792d85" d="M87.2 110.4h11.6V122H87.2z"/><path d="M110.4 52.4V40.8H98.8V29.2H87.2V17.6H75.6v11.6H52.4V17.6H40.8v11.6H29.2v11.6H17.6v11.6H6v46.4h11.6V64h11.6v34.8h11.6v11.6h11.6V91.1H40.8V79.5h46.4v11.6H75.6v19.3h11.6V98.8h11.6V64h11.6v34.8H122V52.4h-11.6zM40.8 40.8h11.6v11.6H40.8V40.8zm46.4 11.6H75.6V40.8h11.6v11.6z" fill="none"/><path fill="none" d="M87.2 6h11.6v11.6H87.2z"/></g><rect x="0" y="0" width="128" height="128" fill="rgba(0, 0, 0, 0)" /></svg>